<svg width="13" height="16" viewBox="0 0 13 16" fill="none" xmlns="http://www.w3.org/2000/svg">
<path d="M11.629 0C8.30498 0 7.68096 4.73444 9.55093 4.73444C11.4206 4.73444 14.9532 0 11.629 0ZM6.49429 0.580078C6.44149 0.579898 6.3848 0.582088 6.32632 0.590088C4.45567 0.832888 5.11346 4.08593 6.10952 4.14673C7.07407 4.20573 8.13058 0.585718 6.49429 0.580078ZM3.2521 1.86719C3.1532 1.86919 3.04532 1.89301 2.92788 1.94141C1.42434 2.56183 2.69885 5.12142 3.54115 4.94922C4.31826 4.79082 4.41898 1.84134 3.2521 1.86719ZM0.855603 3.87299C0.724883 3.87299 0.584253 3.91398 0.433743 4.01758C-0.769847 4.84918 0.838894 6.85844 1.54702 6.54694C2.16663 6.27414 1.77068 3.90379 0.855603 3.87299ZM7.7306 5.41211C5.15026 5.36811 1.74663 6.66222 1.16615 9.26172C0.53747 12.075 3.75329 15.9785 7.10952 15.9785C8.76061 15.9785 10.6653 14.4862 11.0216 12.5976C11.2938 11.1574 7.81864 11.7344 7.94349 12.6876C8.09306 13.8299 7.10596 14.3947 6.13882 13.6583C3.05998 11.3142 11.2364 10.1442 10.6974 6.94159C10.5296 5.94469 9.27881 5.43821 7.7306 5.41211Z" fill="#2E3436"/>
</svg>
